<svg width="1360" height="722" viewBox="0 0 1360 722" fill="none" xmlns="http://www.w3.org/2000/svg">
<mask id="mask0_350_11733" style="mask-type:alpha" maskUnits="userSpaceOnUse" x="0" y="0" width="1360" height="722">
<rect width="1360" height="722" fill="#F9FAFB"/>
</mask>
<g mask="url(#mask0_350_11733)">
<path d="M220.321 715.938C219.78 708.958 219.247 701.993 218.634 693.963C216.634 695.357 215.203 696.423 213.713 697.387C206.697 701.921 200.053 707.25 192.57 710.784C169.404 721.72 147.56 717.318 127.154 703.257C121.678 699.489 116.787 694.868 111.151 690.254C110.786 691.685 110.289 692.948 110.172 694.247C109.617 700.373 109.026 706.505 108.741 712.645C108.595 715.894 107.055 716.639 104.127 716.741C86.2984 717.384 71.1199 710.66 57.5038 699.884C36.835 683.53 22.9853 661.912 11.2016 638.79C7.58041 631.679 4.2731 624.414 0.44014 616.413C0.00208752 621.268 -0.479754 625.247 -0.684179 629.248C-1.03462 636.14 -1.19524 643.046 -1.45807 649.946C-1.93263 662.16 -2.41448 674.382 -2.94015 686.596C-3.10807 690.458 -3.37091 694.32 -3.66295 698.175C-3.75056 699.336 -4.07908 700.475 -4.51714 702.753C-9.1751 698.584 -13.3512 695.145 -17.1842 691.363C-28.8436 679.857 -38.2107 666.635 -46.4388 652.479C-56.054 635.928 -63.9244 618.596 -70.612 600.73C-78.7816 578.901 -85.6006 556.589 -90.0907 533.716C-95.0188 508.623 -99.7716 483.442 -103.05 458.1C-105.817 436.709 -106.7 415.055 -107.759 393.48C-108.569 376.988 -109.051 360.415 -108.409 343.922C-107.372 317.376 -105.831 290.83 -103.502 264.372C-100.202 226.845 -93.011 189.917 -82.8263 153.676C-73.2403 119.566 -60.7558 86.5371 -41.7662 56.3553C-32.6693 41.8996 -22.0465 28.6558 -8.76625 17.741C-7.56891 16.7553 -6.27666 15.8938 -4.64126 14.6892C-4.22511 15.9596 -3.74325 16.8065 -3.69944 17.668C-3.38551 23.4722 -3.15187 29.2763 -2.91824 35.0805C-2.41448 47.9009 -2.02754 60.7358 -1.41427 73.5488C-0.998116 82.3026 -0.275328 91.0344 0.367149 100.679C3.64524 93.7139 6.21513 87.3037 9.56623 81.3462C16.2246 69.5042 22.9195 57.6621 30.3299 46.2874C38.1273 34.3066 47.9104 23.9102 59.4312 15.3755C72.7407 5.5193 87.4009 -0.67184 104.412 0.0582469C107.259 0.182362 108.573 1.06577 108.734 4.05183C109.055 10.1919 109.632 16.3246 110.165 22.45C110.274 23.7204 110.647 24.9615 111.026 26.8671C115.042 23.3772 118.481 20.1722 122.146 17.2518C134.696 7.24231 148.633 0.525502 165.002 0.0801487C183.086 -0.40901 198.257 6.90646 211.976 17.96C213.881 19.5005 215.874 20.9314 218.583 22.9903C219.233 14.8644 219.795 7.84828 220.35 0.963554C243.333 -2.69418 262.198 5.31488 279.049 19.6684C295.403 33.5985 307.354 50.9234 317.568 69.5699C321.584 76.9072 325.293 84.4125 329.374 92.2902C329.549 91.2462 329.746 90.5453 329.761 89.8444C329.805 87.7783 329.753 85.7121 329.783 83.646C330.024 65.8026 330.199 47.9593 330.549 30.1232C330.673 23.8372 331.228 17.5657 331.659 10.1262C336.222 13.616 340.537 16.5874 344.487 19.9823C361.921 34.9637 374.34 53.7708 384.984 73.8628C398.279 98.9632 407.865 125.516 415.714 152.756C422.474 176.214 427.775 200.007 431.469 224.093C434.63 244.696 436.616 265.482 439.128 286.187C439.186 286.654 439.259 287.121 439.931 287.589C439.931 286.231 439.931 284.865 439.931 283.507C439.931 279.616 439.894 275.725 439.916 271.841C440.157 224.451 440.362 177.061 440.668 129.671C440.77 113.412 441.063 97.1453 441.413 80.8862C441.537 75.1258 442.099 69.3727 443.216 63.0721C444.209 64.2329 445.494 65.2477 446.144 66.5692C451.919 78.3382 458.373 89.8517 463.089 102.037C470.04 120.012 476.362 138.286 481.787 156.771C489.38 182.617 494.366 209.09 498.265 235.76C503.624 272.447 506.719 309.294 506.968 346.368C507.157 374.447 506.544 402.482 504.127 430.503C500.623 471.052 494.468 511.127 484.401 550.581C477.852 576.251 469.551 601.336 458.628 625.488C454.781 634 450.276 642.214 445.983 650.522C445.319 651.8 444.202 652.844 442.713 654.735C442.377 652.888 442.121 652.129 442.114 651.369C441.851 633.168 441.566 614.967 441.376 596.759C441.092 570.162 440.873 543.565 440.639 516.967C440.391 488.91 440.164 460.853 439.924 432.788C439.916 431.584 439.792 430.386 439.405 429.182C438.573 437.22 437.843 445.266 436.886 453.289C433.214 484.238 428.257 514.952 420.722 545.236C413.443 574.506 404.237 603.125 391.365 630.408C381.02 652.348 368.74 673.199 351.342 690.473C346.363 695.415 340.639 699.599 335.2 704.067C334.222 704.87 332.973 705.352 331.243 706.323C330.622 678.777 330.016 651.902 329.396 624.254C327.41 628.174 325.621 631.577 323.949 635.037C314.429 654.72 303.01 673.162 287.788 688.976C274.997 702.264 260.359 712.85 241.661 715.778C234.827 716.843 227.68 715.953 220.35 715.953L220.321 715.938Z" fill="#FFE351"/>
</g>
</svg>
