<svg width="16" height="16" viewBox="0 0 16 16" fill="none" xmlns="http://www.w3.org/2000/svg">
<rect width="16" height="16" fill="white"/>
<path d="M12.6713 14.0212C12.6639 13.9059 12.6572 13.7997 12.6505 13.6936C12.6442 13.6915 12.6379 13.6895 12.6317 13.6874C12.6077 13.709 12.583 13.7302 12.5594 13.7522C12.4285 13.8747 12.2757 13.9715 12.081 14.0079C11.819 14.0569 11.6001 13.9777 11.4072 13.8342C11.3813 13.815 11.3568 13.7944 11.3216 13.7664C11.311 13.8424 11.2982 13.9089 11.2933 13.9758C11.2906 14.0135 11.2703 14.0206 11.2314 14.0214C11.0113 14.0254 10.8348 13.944 10.6783 13.8251C10.458 13.6577 10.3247 13.4422 10.203 13.2204C10.1251 13.0783 10.0447 12.9372 9.95114 12.7972C9.93484 13.1181 9.91867 13.4391 9.90237 13.7601C9.89461 13.7626 9.88672 13.7651 9.87896 13.7676C9.80705 13.6819 9.7212 13.6019 9.66571 13.5094C9.47206 13.1866 9.28773 12.8599 9.10196 12.5338C8.98469 12.3279 8.87136 12.1204 8.75593 11.9138C8.74593 11.8959 8.73437 11.8786 8.71609 11.8489C8.67178 11.9252 8.633 11.9919 8.59422 12.0586C8.58975 12.0579 8.58514 12.0573 8.58067 12.0566C8.57699 12.0429 8.57344 12.0293 8.56976 12.0156C8.56437 12.0159 8.55885 12.0164 8.55346 12.0167V12.7957C8.54702 12.7968 8.54057 12.7978 8.53426 12.7989C8.35927 12.4863 8.18428 12.1737 7.99983 11.8442C7.73623 12.3149 7.47999 12.7724 7.21875 13.2389C7.2127 13.2249 7.20863 13.2196 7.2085 13.2143C7.20376 12.9955 7.19811 12.7769 7.19548 12.5581C7.19338 12.3893 7.19509 12.2204 7.19509 12.0516C7.18654 12.0507 7.17813 12.0498 7.16958 12.0489C7.11331 12.1486 7.05665 12.248 7.00064 12.3477C6.80488 12.6962 6.61319 13.0464 6.41204 13.3928C6.29463 13.595 6.14015 13.7764 5.91389 13.907C5.89469 13.9181 5.87458 13.9282 5.84342 13.9449C5.83553 13.6997 5.8279 13.4646 5.82028 13.2295C5.81384 13.2279 5.80753 13.2264 5.80108 13.2248C5.78702 13.2451 5.77085 13.2646 5.75901 13.2858C5.66054 13.4619 5.54761 13.63 5.38497 13.772C5.2489 13.8907 5.09429 13.9834 4.89682 14.0135C4.76022 14.0343 4.62651 14.021 4.49793 13.9683C4.48649 13.9847 4.47703 13.9983 4.4648 14.0159C4.45205 13.9888 4.44048 13.9642 4.43311 13.9486C4.3307 13.9727 4.23209 14.0068 4.12994 14.0175C3.90157 14.0416 3.71173 13.9618 3.54436 13.8395C3.39422 13.7297 3.28273 13.5948 3.18649 13.4504C3.16888 13.4239 3.15218 13.3971 3.12562 13.3559C3.10722 13.5699 3.09039 13.7665 3.07343 13.9631L3.05055 13.9734C2.97206 13.9256 2.88766 13.8831 2.816 13.829C2.56778 13.6417 2.41856 13.4002 2.30037 13.1446C2.13537 12.7878 2.05215 12.4161 2.01876 12.0357C1.98273 11.6261 2.00074 11.2183 2.08554 10.8136C2.15404 10.4869 2.27789 10.1749 2.4509 9.87559C2.63878 9.55036 2.81837 9.22184 3.00177 8.89475C3.01926 8.86359 3.03727 8.83253 3.06133 8.79051C3.06922 8.84537 3.07908 8.8886 3.08105 8.93205C3.08723 9.07042 3.08999 9.20878 3.09512 9.34715C3.10235 9.54345 3.1105 9.73964 3.13312 9.93923C3.17887 9.85836 3.22515 9.77771 3.2705 9.69663C3.44549 9.38435 3.62009 9.07185 3.79495 8.75945C3.84215 8.67519 3.89211 8.59179 3.93549 8.50621C3.94667 8.48404 3.94824 8.45069 3.93641 8.4294C3.67557 7.95911 3.41223 7.48981 3.14902 7.0204C3.14495 7.01316 3.13824 7.00691 3.118 7.0023C3.10156 7.37833 3.085 7.75436 3.06856 8.1305C3.06449 8.13116 3.06041 8.13182 3.0562 8.13237C3.01163 8.05424 2.96641 7.97634 2.9225 7.89788C2.73751 7.56728 2.55082 7.23744 2.36913 6.90563C2.21754 6.62868 2.12946 6.33593 2.07042 6.03605C2.00482 5.70303 1.9876 5.36771 2.00824 5.03183C2.04163 4.48595 2.1593 3.95586 2.47878 3.46955C2.59671 3.29004 2.74264 3.12918 2.95155 3.01485C2.97351 3.00289 2.99652 2.99235 3.01965 2.98193C3.03096 2.97688 3.04358 2.97359 3.07277 2.96371C3.09026 3.16671 3.10708 3.36345 3.12523 3.57478C3.14298 3.54834 3.15415 3.53232 3.16467 3.51597C3.28405 3.33119 3.42314 3.15947 3.63232 3.03602C3.87449 2.89305 4.12915 2.86595 4.39749 2.9839C4.40695 2.98807 4.41734 2.99093 4.42917 2.99499C4.44021 2.96975 4.4506 2.94616 4.46375 2.91598C4.47505 2.93332 4.48334 2.94605 4.49214 2.95954C4.49911 2.95921 4.50608 2.96031 4.51147 2.95856C4.8132 2.85465 5.07154 2.92674 5.30425 3.09637C5.49751 3.23726 5.62701 3.41633 5.73587 3.60737C5.7552 3.64116 5.77479 3.67485 5.79425 3.70865C5.80266 3.70766 5.81094 3.70667 5.81936 3.70579C5.82725 3.47131 5.835 3.23671 5.84355 2.98423C5.91152 3.02692 5.97252 3.05961 6.02577 3.09966C6.20234 3.23254 6.33066 3.39527 6.43149 3.57335C6.67301 4.00063 6.91295 4.42845 7.15354 4.85605C7.1588 4.86538 7.16485 4.87427 7.1797 4.89786C7.18996 4.48759 7.19969 4.09357 7.20942 3.69943L7.21967 3.69603C7.47683 4.15556 7.73399 4.61509 7.99891 5.08856C8.18205 4.76202 8.35757 4.44908 8.53295 4.13625C8.53834 4.13647 8.54386 4.1368 8.54925 4.13702V4.91794C8.55583 4.91827 8.5624 4.91871 8.56897 4.91904C8.57226 4.90302 8.57555 4.88711 8.58212 4.8555C8.62971 4.93703 8.66968 5.00561 8.71622 5.08527C8.75553 5.01691 8.78866 4.96029 8.82074 4.90313C9.07343 4.45193 9.32402 3.99997 9.57947 3.54987C9.65809 3.41129 9.7588 3.28291 9.90118 3.1576C9.91801 3.49095 9.93431 3.81047 9.95048 4.1301C9.95495 4.13164 9.95929 4.13329 9.96376 4.13482C9.97375 4.11913 9.98454 4.10377 9.99374 4.08775C10.1168 3.874 10.233 3.6574 10.3644 3.44739C10.4694 3.2794 10.6123 3.13324 10.803 3.02483C10.9265 2.95461 11.0614 2.91094 11.2137 2.91083C11.2592 2.91083 11.2928 2.91236 11.2941 2.96448C11.2958 3.02823 11.3106 3.09187 11.3211 3.16616C11.5157 3.00497 11.7244 2.88998 12.0015 2.91434C12.2729 2.93826 12.4594 3.08079 12.6284 3.2445L12.648 3.24165C12.6559 3.13522 12.6637 3.02867 12.6725 2.90918C12.7294 2.91741 12.7829 2.92048 12.8329 2.93299C13.0898 2.99762 13.266 3.14794 13.4122 3.32581C13.6509 3.61637 13.7841 3.94368 13.8748 4.28405C13.9759 4.6637 14.0123 5.04895 13.9964 5.43705C13.9762 5.93258 13.8833 6.41735 13.645 6.87513C13.5048 7.14439 13.349 7.40796 13.1998 7.67393C13.059 7.9251 12.9166 8.17582 12.7782 8.42797C12.7658 8.45058 12.7673 8.48668 12.78 8.50961C13.0631 9.01742 13.3527 9.52271 13.6322 10.0318C13.7886 10.3167 13.8765 10.6193 13.9336 10.929C13.9866 11.2169 14.0068 11.5061 13.9965 11.7966C13.9789 12.2922 13.8849 12.7762 13.6534 13.2361C13.5409 13.4597 13.3969 13.6681 13.1776 13.8333C13.0586 13.923 12.924 13.9886 12.7644 14.0136C12.7372 14.0179 12.7089 14.018 12.6709 14.0208L12.6713 14.0212ZM12.6274 9.50779C12.6321 9.50658 12.637 9.50526 12.6417 9.50406C12.6476 9.47399 12.658 9.44404 12.6588 9.41386C12.6645 9.20429 12.6725 8.9946 12.6717 8.78502C12.6704 8.38167 12.6638 7.97842 12.6595 7.57518C12.6593 7.56234 12.6609 7.5495 12.6592 7.53688C12.6542 7.50046 12.6479 7.46403 12.6421 7.42771C12.611 7.45042 12.5947 7.47522 12.5803 7.50078C12.4081 7.80813 12.2371 8.11591 12.0629 8.42249C12.0405 8.46188 12.0529 8.4915 12.0718 8.52519C12.2422 8.82924 12.4119 9.13351 12.5822 9.43756C12.5957 9.46159 12.6123 9.48442 12.6275 9.5079L12.6274 9.50779ZM4.48281 8.77361C4.48754 8.77471 4.49241 8.77591 4.49714 8.77701C4.50608 8.76428 4.51634 8.75188 4.52396 8.73861C4.55473 8.68418 4.57879 8.62658 4.61612 8.57566C4.67068 8.50127 4.67239 8.43434 4.61691 8.35873C4.57024 8.29509 4.53856 8.22366 4.5003 8.15574C4.49438 8.15695 4.4886 8.15815 4.48268 8.15947V8.77372L4.48281 8.77361Z" fill="black"/>
<path d="M11.454 11.2915H4.82262C4.72833 11.2579 4.63403 11.2241 4.53253 11.1879C4.5261 11.2213 4.51945 11.2563 4.51269 11.2915H4.21373C4.20121 11.2844 4.18924 11.2758 4.17606 11.2705C4.08918 11.236 3.99621 11.2134 3.9161 11.1662C3.68894 11.0322 3.53248 10.8219 3.39984 10.59C3.35807 10.517 3.32017 10.4415 3.2805 10.367C3.26288 10.4094 3.25358 10.4509 3.25247 10.4927C3.24704 10.6904 3.24382 10.8881 3.2395 11.0859C3.23939 11.0926 3.23662 11.0994 3.2333 11.1144C3.20283 11.0903 3.1769 11.0722 3.15363 11.0511C2.93633 10.8533 2.7843 10.6048 2.66529 10.3318C2.44678 9.83043 2.34805 9.29833 2.31237 8.75054C2.30993 8.71337 2.30849 8.6762 2.30661 8.6389C2.26938 9.14303 2.19369 9.63595 2.01773 10.107C1.99424 8.96484 1.99379 7.8237 2.01817 6.68198C2.10782 6.91599 2.17508 7.15625 2.21198 7.4043C2.24876 7.65153 2.2748 7.90053 2.30417 8.13796C2.3137 8.02798 2.32345 7.90702 2.33486 7.7863C2.37298 7.38424 2.45675 6.99316 2.59914 6.61837C2.72535 6.28618 2.89001 5.97948 3.14997 5.74157C3.17535 5.71844 3.2036 5.69885 3.22986 5.67808C3.26698 5.92944 3.23585 6.17631 3.27419 6.42059C3.29646 6.39475 3.31009 6.36772 3.32372 6.34058C3.41779 6.15283 3.52727 5.977 3.66866 5.82477C3.89848 5.5773 4.17185 5.46036 4.5005 5.50414C4.51358 5.53683 4.52688 5.57011 4.54261 5.60952C4.71968 5.49765 4.90994 5.49706 5.10253 5.49718C7.16146 5.49871 9.22039 5.49942 11.2793 5.49659C11.5515 5.49623 11.7753 5.60043 11.9669 5.7981C11.9815 5.8132 11.9971 5.82713 12.0177 5.84683C12.0323 5.74877 12.0514 5.66298 12.0559 5.57624C12.0593 5.51016 12.0913 5.51358 12.1315 5.5229C12.1618 5.52987 12.1916 5.54037 12.2204 5.55252C12.4078 5.63206 12.5589 5.76364 12.6868 5.92696C12.9674 6.28523 13.1192 6.70782 13.225 7.15307C13.2417 7.2234 13.2567 7.2942 13.2724 7.36489C13.2773 7.36442 13.2823 7.36395 13.2872 7.36347C13.2924 7.29054 13.3012 7.21773 13.3022 7.14469C13.3074 6.76647 13.3107 6.38814 13.3146 6.00992C13.3148 5.9993 13.3171 5.98868 13.3183 5.97806C13.3234 5.97712 13.3284 5.97617 13.3335 5.97523C13.7728 6.62026 13.9148 7.36583 13.971 8.1415C13.9806 8.0373 13.9904 7.93322 14 7.82902V8.97133C13.9901 8.86324 13.9802 8.75502 13.9703 8.64693C13.9592 8.66498 13.9581 8.68245 13.9563 8.6998C13.9358 8.8984 13.9224 9.09819 13.8932 9.29527C13.825 9.75373 13.6967 10.1918 13.4718 10.5931C13.4285 10.6704 13.3775 10.7428 13.3299 10.8175C13.3164 10.8026 13.3148 10.7953 13.3146 10.7879C13.3107 10.5137 13.3062 10.2396 13.303 9.96531C13.3017 9.85155 13.3047 9.73768 13.3019 9.62392C13.3002 9.55547 13.2912 9.48726 13.2854 9.41894C13.2658 9.45292 13.2573 9.48644 13.2502 9.52019C13.1727 9.88743 13.0632 10.242 12.8814 10.5676C12.7637 10.7784 12.627 10.9738 12.4321 11.1099C12.3413 11.1732 12.2379 11.2173 12.1375 11.2634C12.0853 11.2875 12.0668 11.2712 12.0579 11.2137C12.0443 11.1266 12.0316 11.0394 12.0171 10.9432C11.995 10.9643 11.9801 10.9779 11.9658 10.9922C11.8493 11.1085 11.7219 11.205 11.5645 11.2496C11.5268 11.2603 11.4905 11.2772 11.4536 11.2913L11.454 11.2915Z" fill="#F967FB"/>
<path d="M5.32547 12.0766V5.00853C5.35702 4.90802 5.38869 4.80751 5.42268 4.69932C5.39135 4.69247 5.35846 4.68539 5.32547 4.67818V4.35953C5.33211 4.34619 5.34019 4.33343 5.34518 4.31937C5.37751 4.22678 5.39876 4.12769 5.44305 4.0423C5.56871 3.80018 5.76601 3.63341 5.98357 3.49204C6.0521 3.44751 6.12296 3.40712 6.19282 3.36484C6.15307 3.34606 6.1141 3.33614 6.07491 3.33496C5.88946 3.32917 5.7039 3.32575 5.51834 3.32114C5.51203 3.32102 5.50571 3.31807 5.49165 3.31453C5.51424 3.28205 5.53118 3.25441 5.551 3.22961C5.73656 2.998 5.96973 2.83596 6.22581 2.70911C6.69624 2.47621 7.19546 2.37097 7.70941 2.33294C7.74428 2.33034 7.77916 2.32881 7.81415 2.3268C7.34117 2.28712 6.8787 2.20645 6.43673 2.0189C7.50835 1.99386 8.57897 1.99339 9.65015 2.01937C9.4306 2.11492 9.20518 2.18661 8.97246 2.22594C8.74051 2.26515 8.5069 2.2929 8.28414 2.3242C8.38732 2.33436 8.50081 2.34475 8.61407 2.35692C8.99128 2.39755 9.35819 2.48683 9.70983 2.6386C10.0215 2.77312 10.3092 2.94863 10.5324 3.22571C10.5541 3.25276 10.5725 3.28287 10.592 3.31086C10.3562 3.35043 10.1246 3.31724 9.89539 3.35811C9.91963 3.38185 9.94499 3.39637 9.97045 3.4109C10.1466 3.51117 10.3116 3.62786 10.4544 3.77857C10.6866 4.02352 10.7963 4.31489 10.7552 4.66519C10.7245 4.67913 10.6933 4.6933 10.6563 4.71007C10.7613 4.89881 10.7619 5.10159 10.7617 5.30686C10.7603 7.5014 10.7596 9.69594 10.7623 11.8905C10.7626 12.1805 10.6649 12.4191 10.4794 12.6233C10.4652 12.6389 10.4522 12.6556 10.4337 12.6775C10.5257 12.693 10.6062 12.7134 10.6876 12.7182C10.7496 12.7218 10.7464 12.756 10.7376 12.7988C10.7311 12.8311 10.7212 12.8628 10.7098 12.8936C10.6352 13.0933 10.5117 13.2544 10.3585 13.3907C10.0224 13.6897 9.6259 13.8515 9.20817 13.9643C9.14218 13.9821 9.07576 13.9981 9.00944 14.0149C9.00988 14.02 9.01032 14.0254 9.01076 14.0306C9.07919 14.0361 9.1475 14.0456 9.21603 14.0466C9.57088 14.0522 9.92583 14.0556 10.2807 14.0599C10.2906 14.06 10.3006 14.0625 10.3106 14.0637C10.3115 14.0692 10.3123 14.0745 10.3132 14.0799C9.70805 14.5482 9.00855 14.6995 8.28081 14.7594C8.37858 14.7697 8.47623 14.7801 8.57399 14.7903H7.50226C7.60367 14.7798 7.7052 14.7692 7.80662 14.7587C7.78968 14.7469 7.77329 14.7457 7.75702 14.7438C7.57068 14.722 7.38324 14.7077 7.19834 14.6765C6.76821 14.6038 6.35723 14.4671 5.98069 14.2273C5.90817 14.1811 5.8403 14.1268 5.77022 14.0762C5.78417 14.0617 5.79103 14.06 5.79789 14.0599C6.0552 14.0556 6.31239 14.0509 6.5697 14.0475C6.67643 14.046 6.78327 14.0492 6.89 14.0463C6.95421 14.0445 7.01821 14.0348 7.08231 14.0287C7.05043 14.0078 7.01898 13.9987 6.98732 13.9911C6.64277 13.9086 6.31007 13.7919 6.0046 13.5981C5.80686 13.4726 5.62352 13.3269 5.49586 13.1191C5.43641 13.0224 5.39511 12.9122 5.35182 12.8052C5.32923 12.7496 5.34451 12.7299 5.39843 12.7203C5.48014 12.7059 5.56196 12.6923 5.65219 12.6768C5.63248 12.6533 5.61964 12.6374 5.60624 12.6221C5.49719 12.498 5.40662 12.3622 5.36477 12.1945C5.3547 12.1542 5.33887 12.1156 5.32569 12.0763L5.32547 12.0766Z" fill="#F967FB"/>
</svg>
