<svg width="242" height="45" viewBox="0 0 242 45" fill="none" xmlns="http://www.w3.org/2000/svg">
<rect width="241.837" height="44.646" fill="#E8EDF3"/>
<path d="M37.738 10.0115C39.2685 10.0115 40.7991 10.0115 42.3276 10.0115C46.8539 10.0135 50.0705 12.6594 50.3345 17.034C50.5596 20.7521 50.5002 24.5061 50.2588 28.2242C50.0235 31.8409 46.6615 34.6141 42.9231 34.634C39.4547 34.6519 35.9864 34.6479 32.5181 34.634C28.4645 34.6181 25.0964 31.4251 25.0391 27.4742C24.988 24.0366 24.9859 20.5989 25.0391 17.1613C25.1026 13.2562 28.4236 10.0752 32.4321 10.0135C34.2001 9.98565 35.968 10.0095 37.7359 10.0095L37.738 10.0115ZM37.7155 12.3928C36.1174 12.3928 34.5193 12.3928 32.9212 12.3928C29.7802 12.3968 27.513 14.4339 27.4455 17.4597C27.3739 20.6984 27.3759 23.9391 27.4434 27.1778C27.5069 30.2156 29.7618 32.2567 32.9007 32.2587C36.1644 32.2587 39.4302 32.2646 42.6939 32.2587C45.6118 32.2527 47.9036 30.1479 47.9568 27.2972C48.0202 23.9928 48.0161 20.6845 47.9568 17.3801C47.9056 14.4876 45.6139 12.4007 42.6141 12.3928C40.9812 12.3888 39.3504 12.3928 37.7175 12.3928H37.7155Z" fill="black"/>
<path d="M31.5606 22.3103C31.5667 18.9324 34.4007 16.195 37.8547 16.2308C41.2637 16.2666 44.065 18.9921 44.0916 22.3024C44.1182 25.6465 41.2883 28.4018 37.8138 28.4137C34.3332 28.4257 31.5544 25.7161 31.5606 22.3103ZM37.7933 26.1518C40.0094 26.1518 41.7569 24.4807 41.7651 22.3481C41.7732 20.2275 40.0196 18.5106 37.8261 18.4967C35.6366 18.4828 33.883 20.1698 33.8605 22.3143C33.838 24.441 35.5896 26.1518 37.7933 26.1518Z" fill="black"/>
<path d="M44.3516 14.4043C45.2192 14.3805 45.9313 15.0509 45.9272 15.8844C45.9211 16.6464 45.2049 17.3367 44.4089 17.3426C43.6047 17.3486 42.9233 16.6881 42.9152 15.8904C42.9049 15.0608 43.5188 14.4262 44.3516 14.4023V14.4043Z" fill="black"/>
<path d="M100.994 16.6623C100.296 17.0303 99.5635 17.3486 98.9067 17.7743C95.7883 19.7916 92.6637 21.8048 89.5944 23.8936C88.3298 24.7531 87.0386 24.9162 85.6267 24.5024C84.1944 24.0826 82.7641 23.647 81.3604 23.1456C80.9961 23.0163 80.5173 22.6483 80.4785 22.3439C80.4396 22.0376 80.8038 21.5541 81.1271 21.3552C81.7512 20.9693 82.4633 20.7067 83.1529 20.4282C90.3822 17.5177 97.6114 14.6112 104.847 11.7147C105.377 11.5038 105.931 11.2949 106.494 11.2313C107.577 11.1099 108.078 11.5277 107.98 12.5801C107.812 14.3904 107.55 16.1948 107.266 17.9932C106.562 22.4414 105.817 26.8817 105.103 31.3279C104.794 33.2516 103.754 33.93 101.958 33.0666C100.288 32.2669 98.7389 31.2205 97.1776 30.2218C95.8415 29.3664 94.5401 28.4573 93.2673 27.5163C92.1705 26.7046 92.1624 25.9785 93.1568 25.0534C95.5448 22.8333 97.9511 20.6291 100.321 18.391C100.73 18.0051 101.002 17.4819 101.338 17.0204C101.223 16.901 101.108 16.7797 100.994 16.6603V16.6623Z" fill="black"/>
<path d="M149.887 14.2608C152.031 14.2608 154.174 14.2529 156.318 14.2628C159.518 14.2787 161.694 16.3954 161.71 19.5068C161.72 21.3907 161.72 23.2747 161.71 25.1586C161.694 28.2183 159.523 30.3628 156.398 30.3767C152.042 30.3946 147.687 30.3926 143.331 30.3767C140.317 30.3648 138.105 28.272 138.031 25.3337C137.98 23.3184 137.976 21.2992 138.031 19.286C138.113 16.3497 140.329 14.2847 143.353 14.2648C145.531 14.2509 147.71 14.2628 149.887 14.2628V14.2608ZM153.951 22.7077C153.855 22.5048 153.838 22.3755 153.769 22.3377C151.839 21.2972 149.922 20.2389 147.961 19.2541C147.438 18.9916 146.947 19.1845 146.947 19.9067C146.947 21.5559 146.953 23.205 146.944 24.8542C146.94 25.5505 147.37 25.8032 147.929 25.5525C149.95 24.6453 151.939 23.6646 153.949 22.7057L153.951 22.7077Z" fill="black"/>
<path d="M191.718 34.5662C192.233 32.6763 192.659 30.9535 193.185 29.2606C193.435 28.4529 193.379 27.7845 193.029 26.9987C190.12 20.4894 193.463 13.093 200.328 10.7515C207.007 8.47363 214.423 12.2156 216.354 18.8383C218.337 25.6359 214.028 32.557 206.888 34.0152C204.277 34.5483 201.763 34.2101 199.299 33.2274C198.761 33.0125 198.053 32.9767 197.48 33.1041C195.606 33.5159 193.758 34.0391 191.72 34.5662H191.718ZM195.133 31.2559C195.919 31.053 196.492 30.9575 197.024 30.7586C198.165 30.3348 199.146 30.4642 200.283 31.0092C203.917 32.7559 208.335 31.984 211.257 29.2705C214.3 26.4416 215.255 22.2301 213.692 18.5239C211.501 13.3277 205.262 10.9584 200.118 13.3715C194.836 15.8482 192.847 21.9218 195.628 26.931C195.882 27.3866 195.894 28.0431 195.818 28.5802C195.7 29.4138 195.409 30.2234 195.135 31.2539L195.133 31.2559Z" fill="black"/>
<path d="M198.323 19.4514C198.442 18.9501 198.485 18.4786 198.665 18.0629C198.994 17.3009 199.52 16.6822 200.46 16.6643C201.344 16.6484 201.601 17.3626 201.935 17.9753C202.465 18.9481 202.678 19.8712 201.783 20.7982C201.624 20.9653 201.667 21.4945 201.818 21.7352C202.614 23.0045 203.746 23.9295 205.115 24.5979C205.702 24.8844 206.124 24.8745 206.457 24.2597C206.799 23.6291 207.31 23.1417 208.092 23.4381C209.021 23.7883 210.155 24.0429 210.406 25.151C210.601 26.0084 210.013 26.7504 209.234 27.0488C208.452 27.3453 207.49 27.6079 206.713 27.4348C202.954 26.5992 200.38 24.2737 198.731 20.9435C198.501 20.4819 198.45 19.9368 198.321 19.4494L198.323 19.4514Z" fill="black"/>
</svg>
