<svg width="1273" height="480" viewBox="0 0 1273 480" fill="none" xmlns="http://www.w3.org/2000/svg">
<mask id="mask0_424_9803" style="mask-type:alpha" maskUnits="userSpaceOnUse" x="0" y="0" width="1273" height="480">
<rect width="1273" height="480" fill="#D9D9D9"/>
</mask>
<g mask="url(#mask0_424_9803)">
<rect width="1273" height="480" fill="#B2A1FF"/>
<rect x="663" y="43.3555" width="328" height="618.057" rx="30" fill="#F9FAFB"/>
<path fill-rule="evenodd" clip-rule="evenodd" d="M745.256 51.5879L692.896 51.5879C681.103 51.5879 671.542 60.7455 671.542 72.042V706.528C671.542 717.823 681.103 726.982 692.896 726.982H964.941C976.734 726.982 986.294 717.823 986.294 706.528L986.294 72.042C986.294 60.7455 976.734 51.5879 964.941 51.5879L912.581 51.5879C913.023 52.7361 913.265 53.9777 913.265 55.2733V64.3629C913.265 70.237 908.294 74.999 902.161 74.999L755.676 74.999C749.543 74.999 744.572 70.237 744.572 64.3629V55.2733C744.572 53.9777 744.813 52.7361 745.256 51.5879ZM994.836 72.042C994.836 56.2269 981.451 43.4062 964.941 43.4062L692.896 43.4062C676.385 43.4062 663.001 56.2269 663.001 72.042V706.528C663.001 722.343 676.385 735.164 692.896 735.164H964.941C981.451 735.164 994.836 722.343 994.836 706.528L994.836 72.042Z" fill="#2D3037"/>
<rect width="320.303" height="553.147" rx="30" transform="matrix(0.999992 0.00401311 -0.0041697 0.999991 914.118 97.9922)" fill="#F9FAFB"/>
<path fill-rule="evenodd" clip-rule="evenodd" d="M994.389 105.219L943.285 105.013C931.775 104.966 922.407 113.866 922.361 124.892L919.794 744.159C919.748 755.183 929.042 764.16 940.552 764.207L1206.07 765.278C1217.58 765.325 1226.95 756.423 1227 745.399L1229.56 126.132C1229.61 115.106 1220.31 106.131 1208.8 106.084L1157.7 105.878C1158.13 107.001 1158.36 108.213 1158.35 109.478L1158.32 118.349C1158.29 124.083 1153.42 128.711 1147.44 128.687L1004.46 128.109C998.479 128.085 993.646 123.418 993.67 117.685L993.706 108.813C993.712 107.549 993.953 106.338 994.389 105.219ZM1237.9 126.166C1237.96 110.73 1224.95 98.1641 1208.84 98.099L943.318 97.0272C927.204 96.9622 914.088 109.423 914.024 124.858L911.457 744.125C911.393 759.561 924.405 772.127 940.519 772.192L1206.04 773.264C1222.15 773.329 1235.27 760.868 1235.33 745.433L1237.9 126.166Z" fill="#2D3037"/>
<path d="M49.245 109.721V140.521H39.125V102.021H76.855V140.521H66.735V109.721H49.245ZM111.441 111.591C109.425 109.611 106.638 108.621 103.081 108.621C99.5247 108.621 96.7381 109.611 94.7214 111.591C92.3747 113.828 91.2014 117.055 91.2014 121.271C91.2014 125.488 92.3747 128.715 94.7214 130.951C96.7381 132.931 99.5247 133.921 103.081 133.921C106.638 133.921 109.425 132.931 111.441 130.951C113.788 128.715 114.961 125.488 114.961 121.271C114.961 117.055 113.788 113.828 111.441 111.591ZM125.961 121.271C125.961 127.541 123.945 132.455 119.911 136.011C115.768 139.751 110.158 141.621 103.081 141.621C96.0047 141.621 90.3947 139.751 86.2514 136.011C82.2181 132.455 80.2014 127.541 80.2014 121.271C80.2014 115.148 82.2181 110.235 86.2514 106.531C90.3947 102.791 96.0047 100.921 103.081 100.921C110.158 100.921 115.768 102.791 119.911 106.531C123.945 110.235 125.961 115.148 125.961 121.271ZM139.378 109.721V120.336H148.508C151.442 120.336 153.44 119.805 154.503 118.741C155.457 117.788 155.933 116.468 155.933 114.781C155.933 113.095 155.31 111.775 154.063 110.821C153.037 110.088 151.387 109.721 149.113 109.721H139.378ZM129.258 102.021H149.883C152.963 102.021 155.493 102.241 157.473 102.681C159.49 103.121 161.268 104.056 162.808 105.486C165.192 107.723 166.383 110.785 166.383 114.671C166.383 118.485 165.338 121.528 163.248 123.801C161.672 125.525 159.802 126.625 157.638 127.101C155.475 127.578 152.67 127.816 149.223 127.816H139.378V140.521H129.258V102.021ZM177.756 109.721H164.336V102.021H201.296V109.721H187.876V140.521H177.756V109.721ZM218.193 129.521V112.306H216.928C213.665 112.306 211.117 112.911 209.283 114.121C207.047 115.551 205.928 117.788 205.928 120.831C205.928 122.738 206.313 124.278 207.083 125.451C207.853 126.588 208.642 127.395 209.448 127.871C211.208 128.971 213.665 129.521 216.818 129.521H218.193ZM227.268 129.521H228.533C231.797 129.521 234.253 129.008 235.903 127.981C238.36 126.295 239.588 123.911 239.588 120.831C239.588 119.145 239.222 117.696 238.488 116.486C237.755 115.276 236.893 114.378 235.903 113.791C234.18 112.801 231.705 112.306 228.478 112.306H227.268V129.521ZM217.698 141.951V136.286H216.213C212.437 136.286 209.228 135.956 206.588 135.296C203.948 134.636 201.73 133.408 199.933 131.611C197.183 128.935 195.808 125.341 195.808 120.831C195.808 116.505 197.11 113.021 199.713 110.381C202.977 107.118 208.495 105.486 216.268 105.486H217.698V99.8765H227.818V105.486H229.193C237.04 105.486 242.595 107.118 245.858 110.381C248.425 112.948 249.708 116.431 249.708 120.831C249.708 125.415 248.352 129.008 245.638 131.611C243.805 133.445 241.55 134.691 238.873 135.351C236.233 135.975 233.025 136.286 229.248 136.286H227.818V141.951H217.698ZM281.664 111.591C279.648 109.611 276.861 108.621 273.304 108.621C269.748 108.621 266.961 109.611 264.944 111.591C262.598 113.828 261.424 117.055 261.424 121.271C261.424 125.488 262.598 128.715 264.944 130.951C266.961 132.931 269.748 133.921 273.304 133.921C276.861 133.921 279.648 132.931 281.664 130.951C284.011 128.715 285.184 125.488 285.184 121.271C285.184 117.055 284.011 113.828 281.664 111.591ZM296.184 121.271C296.184 127.541 294.168 132.455 290.134 136.011C285.991 139.751 280.381 141.621 273.304 141.621C266.228 141.621 260.618 139.751 256.474 136.011C252.441 132.455 250.424 127.541 250.424 121.271C250.424 115.148 252.441 110.235 256.474 106.531C260.618 102.791 266.228 100.921 273.304 100.921C280.381 100.921 285.991 102.791 290.134 106.531C294.168 110.235 296.184 115.148 296.184 121.271ZM295.158 140.411V132.986C295.598 133.133 296.258 133.206 297.138 133.206C298.752 133.206 300.017 132.785 300.933 131.941C302.253 130.731 303.023 128.586 303.243 125.506C303.5 122.793 303.628 119.915 303.628 116.871L303.683 102.021H336.298V140.521H326.178V109.721H312.868L312.813 118.521C312.813 122.298 312.612 125.8 312.208 129.026C311.732 133.17 310.448 136.195 308.358 138.101C306.305 139.971 303.408 140.906 299.668 140.906C297.982 140.906 296.478 140.741 295.158 140.411ZM351.58 127.816L370.555 102.021H380.73V140.521H370.61V114.506L351.69 140.521H341.46V102.021H351.58V127.816ZM415.334 111.591C413.317 109.611 410.53 108.621 406.974 108.621C403.417 108.621 400.63 109.611 398.614 111.591C396.267 113.828 395.094 117.055 395.094 121.271C395.094 125.488 396.267 128.715 398.614 130.951C400.63 132.931 403.417 133.921 406.974 133.921C410.53 133.921 413.317 132.931 415.334 130.951C417.68 128.715 418.854 125.488 418.854 121.271C418.854 117.055 417.68 113.828 415.334 111.591ZM429.854 121.271C429.854 127.541 427.837 132.455 423.804 136.011C419.66 139.751 414.05 141.621 406.974 141.621C399.897 141.621 394.287 139.751 390.144 136.011C386.11 132.455 384.094 127.541 384.094 121.271C384.094 115.148 386.11 110.235 390.144 106.531C394.287 102.791 399.897 100.921 406.974 100.921C414.05 100.921 419.66 102.791 423.804 106.531C427.837 110.235 429.854 115.148 429.854 121.271Z" fill="black"/>
<path d="M47.595 32.3H55.35C53.0033 37.58 51.4633 41.43 50.73 43.85C49.19 48.2133 48.42 52.595 48.42 56.995C48.42 61.2483 49.1717 65.63 50.675 70.14C51.8483 73.9533 53.4067 77.895 55.35 81.965H47.595C44.8083 77.6017 42.7917 73.8067 41.545 70.58C39.7483 66.2533 38.85 61.8167 38.85 57.27C38.85 52.5767 39.8583 47.8283 41.875 43.025C43.1217 40.1283 45.0283 36.5533 47.595 32.3ZM97.2656 53.695C97.2656 60.3683 95.5056 65.4283 91.9856 68.875C88.6123 72.1383 83.7723 73.77 77.4656 73.77C71.1589 73.77 66.3189 72.1383 62.9456 68.875C59.4256 65.4283 57.6656 60.3683 57.6656 53.695C57.6656 46.9483 59.4256 41.87 62.9456 38.46C66.3189 35.1967 71.1589 33.565 77.4656 33.565C83.7723 33.565 88.6123 35.1967 91.9856 38.46C95.5056 41.87 97.2656 46.9483 97.2656 53.695ZM82.8556 42.915C81.4989 41.6683 79.7023 41.045 77.4656 41.045C75.2289 41.045 73.4323 41.6683 72.0756 42.915C69.7289 45.0783 68.5556 48.6717 68.5556 53.695C68.5556 58.755 69.7289 62.3483 72.0756 64.475C73.4689 65.7217 75.2656 66.345 77.4656 66.345C79.7389 66.345 81.5356 65.7217 82.8556 64.475C85.2023 62.3117 86.3756 58.7183 86.3756 53.695C86.3756 48.6717 85.2023 45.0783 82.8556 42.915ZM97.3704 45.83V41.21H97.7004C100.56 41.21 102.834 40.605 104.52 39.395C106.097 38.2583 107.105 36.6267 107.545 34.5H115.19V73H105.07V45.83H97.3704ZM130.034 32.3H137.789C140.356 36.5533 142.262 40.1283 143.509 43.025C145.526 47.8283 146.534 52.5767 146.534 57.27C146.534 61.8167 145.636 66.2533 143.839 70.58C142.592 73.8067 140.576 77.6017 137.789 81.965H130.034C132.197 77.015 133.756 73.0733 134.709 70.14C136.212 65.63 136.964 61.2483 136.964 56.995C136.964 52.595 136.194 48.2133 134.654 43.85C133.921 41.43 132.381 37.58 130.034 32.3Z" fill="black"/>
<path d="M51.57 383.343C53.46 384.393 54.03 386.013 54.03 387.783C54.03 390.813 51.99 393.303 47.55 393.303H38.43V373.383H47.55C51.99 373.383 54.03 375.873 54.03 378.933C54.03 380.643 53.46 382.293 51.57 383.343ZM41.73 390.273H47.34C49.41 390.273 50.73 389.373 50.73 387.573C50.73 385.743 49.41 384.843 47.34 384.843H41.73V390.273ZM41.73 381.813H47.34C49.41 381.813 50.73 380.943 50.73 379.143C50.73 377.313 49.41 376.413 47.34 376.413H41.73V381.813ZM71.0189 379.293H74.1989V393.303H71.0189V379.293ZM59.2889 383.613H63.2789C66.9989 383.613 68.7389 385.893 68.7389 388.473C68.7389 391.083 66.9989 393.303 63.2789 393.303H56.1089V379.293H59.2889V383.613ZM59.2889 390.513H63.1889C64.6289 390.513 65.5589 389.793 65.5589 388.473C65.5589 387.153 64.6289 386.403 63.1889 386.403H59.2889V390.513ZM76.9554 379.293H80.1354V385.053L86.3454 379.293H90.6954L83.0454 386.313L90.6954 393.303H86.3454L80.1354 387.873V393.303H76.9554V379.293ZM92.9737 379.293H104.584V393.303H101.404V382.083H96.1537V385.173C96.1537 388.713 95.6437 393.303 90.9337 393.303H89.7637V390.333H90.5737C92.9137 390.333 92.9737 387.333 92.9737 385.113V379.293ZM113.13 378.903C117.21 378.903 120.03 380.913 120.03 384.483V393.303H116.85V392.013C115.8 393.123 114.15 393.693 112.14 393.693C108.78 393.693 106.53 392.073 106.53 388.983C106.53 385.533 109.65 384.483 112.92 384.483H116.85C116.85 382.563 115.2 381.843 113.16 381.843C111.51 381.843 110.1 382.353 109.59 383.643H106.2C107.01 380.493 109.92 378.903 113.13 378.903ZM116.85 387.783V387.033H112.89C110.88 387.033 109.71 387.633 109.71 388.983C109.71 390.273 110.82 390.993 112.65 390.993C115.05 390.993 116.85 389.823 116.85 387.783ZM138.313 397.083H135.223V393.303H124.033V397.083H120.973V390.513H122.743C123.853 389.403 124.243 387.273 124.243 385.113V379.293H135.973V390.513H138.313V397.083ZM127.423 382.083V385.083C127.423 386.853 127.243 388.953 126.433 390.513H132.793V382.083H127.423ZM154.831 379.293H158.011V393.303H154.831V379.293ZM143.101 383.613H147.091C150.811 383.613 152.551 385.893 152.551 388.473C152.551 391.083 150.811 393.303 147.091 393.303H139.921V379.293H143.101V383.613ZM143.101 390.513H147.001C148.441 390.513 149.371 389.793 149.371 388.473C149.371 387.153 148.441 386.403 147.001 386.403H143.101V390.513ZM172.378 386.253C173.548 387.003 173.968 388.143 173.968 389.313C173.968 391.473 172.468 393.303 169.348 393.303H160.768V379.293H169.198C172.318 379.293 173.818 381.093 173.818 383.283C173.818 384.393 173.488 385.443 172.378 386.253ZM163.948 390.633H168.928C170.098 390.633 170.788 390.093 170.788 389.103C170.788 388.113 170.098 387.573 168.928 387.573H163.948V390.633ZM163.948 384.993H168.778C169.948 384.993 170.638 384.453 170.638 383.463C170.638 382.503 169.948 381.963 168.778 381.963H163.948V384.993ZM181.691 378.903C185.771 378.903 188.591 380.913 188.591 384.483V393.303H185.411V392.013C184.361 393.123 182.711 393.693 180.701 393.693C177.341 393.693 175.091 392.073 175.091 388.983C175.091 385.533 178.211 384.483 181.481 384.483H185.411C185.411 382.563 183.761 381.843 181.721 381.843C180.071 381.843 178.661 382.353 178.151 383.643H174.761C175.571 380.493 178.481 378.903 181.691 378.903ZM185.411 387.783V387.033H181.451C179.441 387.033 178.271 387.633 178.271 388.983C178.271 390.273 179.381 390.993 181.211 390.993C183.611 390.993 185.411 389.823 185.411 387.783ZM194.244 393.303H191.064V379.293H194.244V388.803L201.714 379.293H204.894V393.303H201.714V383.793L194.244 393.303ZM192.234 371.823H194.904C195.024 373.503 196.284 374.703 197.964 374.703C199.644 374.703 200.904 373.503 201.024 371.823H203.694C203.544 375.063 201.084 377.343 197.964 377.343C194.844 377.343 192.384 375.063 192.234 371.823ZM212.455 379.293H215.635V385.053L221.845 379.293H226.195L218.545 386.313L226.195 393.303H221.845L215.635 387.873V393.303H212.455V379.293ZM233.134 390.753C234.544 390.753 235.744 390.273 236.434 389.223H239.884C238.834 391.983 236.224 393.693 233.134 393.693C228.844 393.693 225.664 390.573 225.664 386.283C225.664 382.113 228.694 378.903 232.984 378.903C237.154 378.903 240.094 382.083 240.094 386.163C240.094 386.613 240.124 386.973 240.034 387.423H228.964C229.324 389.433 231.004 390.753 233.134 390.753ZM232.984 381.753C230.944 381.753 229.294 382.983 229.024 384.873H236.734C236.404 382.983 235.024 381.753 232.984 381.753ZM245.169 393.303H241.989V379.293H245.169V388.803L252.639 379.293H255.819V393.303H252.639V383.793L245.169 393.303ZM243.159 371.823H245.829C245.949 373.503 247.209 374.703 248.889 374.703C250.569 374.703 251.829 373.503 251.949 371.823H254.619C254.469 375.063 252.009 377.343 248.889 377.343C245.769 377.343 243.309 375.063 243.159 371.823ZM271.878 383.643H268.548C267.828 382.473 266.568 381.843 265.128 381.843C262.638 381.843 260.898 383.733 260.898 386.283C260.898 388.803 262.638 390.753 265.128 390.753C266.568 390.753 267.828 390.123 268.548 388.953H271.878C270.828 391.863 268.248 393.693 265.128 393.693C260.928 393.693 257.718 390.543 257.718 386.283C257.718 382.053 260.928 378.903 265.128 378.903C268.248 378.903 270.828 380.733 271.878 383.643ZM288.544 379.293H291.724V393.303H288.544V379.293ZM276.814 383.613H280.804C284.524 383.613 286.264 385.893 286.264 388.473C286.264 391.083 284.524 393.303 280.804 393.303H273.634V379.293H276.814V383.613ZM276.814 390.513H280.714C282.154 390.513 283.084 389.793 283.084 388.473C283.084 387.153 282.154 386.403 280.714 386.403H276.814V390.513ZM310.882 386.253C312.052 387.003 312.472 388.143 312.472 389.313C312.472 391.473 310.972 393.303 307.852 393.303H299.272V379.293H307.702C310.822 379.293 312.322 381.093 312.322 383.283C312.322 384.393 311.992 385.443 310.882 386.253ZM302.452 390.633H307.432C308.602 390.633 309.292 390.093 309.292 389.103C309.292 388.113 308.602 387.573 307.432 387.573H302.452V390.633ZM302.452 384.993H307.282C308.452 384.993 309.142 384.453 309.142 383.463C309.142 382.503 308.452 381.963 307.282 381.963H302.452V384.993ZM330.807 386.253C331.977 387.003 332.397 388.143 332.397 389.313C332.397 391.473 330.897 393.303 327.777 393.303H319.197V379.293H327.627C330.747 379.293 332.247 381.093 332.247 383.283C332.247 384.393 331.917 385.443 330.807 386.253ZM322.377 390.633H327.357C328.527 390.633 329.217 390.093 329.217 389.103C329.217 388.113 328.527 387.573 327.357 387.573H322.377V390.633ZM322.377 384.993H327.207C328.377 384.993 329.067 384.453 329.067 383.463C329.067 382.503 328.377 381.963 327.207 381.963H322.377V384.993ZM337.511 393.303H334.331V379.293H337.511V388.803L344.981 379.293H348.161V393.303H344.981V383.793L337.511 393.303ZM363.439 383.433C363.439 384.483 363.049 385.533 361.879 386.253C362.869 386.883 363.559 387.813 363.559 389.223C363.559 391.743 360.979 393.693 357.019 393.693C352.939 393.693 350.569 391.803 349.939 389.043H353.419C353.929 390.303 355.189 390.933 357.199 390.933C358.999 390.933 360.379 390.153 360.379 389.073C360.379 388.113 359.569 387.573 358.399 387.573H355.069V384.993H358.309C359.479 384.993 360.259 384.453 360.259 383.493C360.259 382.383 358.969 381.633 357.169 381.633C355.309 381.633 354.079 382.203 353.509 383.313H350.059C350.779 380.823 352.999 378.903 357.109 378.903C359.869 378.903 363.439 380.133 363.439 383.433ZM369.793 393.003L363.613 379.293H367.153L371.563 389.103L375.943 379.293H379.333L372.673 394.053C370.753 398.223 370.333 399.423 366.883 399.423H365.173V396.633H366.403C367.753 396.633 368.443 396.063 369.253 394.233L369.793 393.003ZM385.58 378.903C389.66 378.903 392.48 380.913 392.48 384.483V393.303H389.3V392.013C388.25 393.123 386.6 393.693 384.59 393.693C381.23 393.693 378.98 392.073 378.98 388.983C378.98 385.533 382.1 384.483 385.37 384.483H389.3C389.3 382.563 387.65 381.843 385.61 381.843C383.96 381.843 382.55 382.353 382.04 383.643H378.65C379.46 380.493 382.37 378.903 385.58 378.903ZM389.3 387.783V387.033H385.34C383.33 387.033 382.16 387.633 382.16 388.983C382.16 390.273 383.27 390.993 385.1 390.993C387.5 390.993 389.3 389.823 389.3 387.783ZM396.453 379.293H408.063V393.303H404.883V382.083H399.633V385.173C399.633 388.713 399.123 393.303 394.413 393.303H393.243V390.333H394.053C396.393 390.333 396.453 387.333 396.453 385.113V379.293ZM413.999 383.613H418.439C422.159 383.613 423.899 385.893 423.899 388.473C423.899 391.083 422.159 393.303 418.439 393.303H410.819V379.293H413.999V383.613ZM413.999 390.513H418.349C419.789 390.513 420.719 389.793 420.719 388.473C420.719 387.153 419.789 386.403 418.349 386.403H413.999V390.513ZM435.87 379.293H439.05V393.303H435.87V387.633H428.4V393.303H425.22V379.293H428.4V384.843H435.87V379.293ZM448.449 378.903C452.679 378.903 455.919 382.053 455.919 386.313C455.919 390.543 452.679 393.693 448.449 393.693C444.159 393.693 440.949 390.543 440.949 386.313C440.949 382.053 444.159 378.903 448.449 378.903ZM448.449 390.753C450.969 390.753 452.739 388.833 452.739 386.313C452.739 383.733 450.969 381.843 448.449 381.843C445.959 381.843 444.129 383.733 444.129 386.313C444.129 388.833 445.959 390.753 448.449 390.753ZM54.12 424.083H51.06V420.303H38.28V406.293H41.46V417.513H48.63V406.293H51.81V417.513H54.12V424.083ZM62.328 417.753C63.738 417.753 64.938 417.273 65.628 416.223H69.078C68.028 418.983 65.418 420.693 62.328 420.693C58.038 420.693 54.858 417.573 54.858 413.283C54.858 409.113 57.888 405.903 62.178 405.903C66.348 405.903 69.288 409.083 69.288 413.163C69.288 413.613 69.318 413.973 69.228 414.423H58.158C58.518 416.433 60.198 417.753 62.328 417.753ZM62.178 408.753C60.138 408.753 58.488 409.983 58.218 411.873H65.928C65.598 409.983 64.218 408.753 62.178 408.753ZM72.6839 406.293H84.2939V420.303H81.1139V409.083H75.8639V412.173C75.8639 415.713 75.3539 420.303 70.6439 420.303H69.4739V417.333H70.2839C72.6239 417.333 72.6839 414.333 72.6839 412.113V406.293ZM90.2299 410.613H94.6699C98.3899 410.613 100.13 412.893 100.13 415.473C100.13 418.083 98.3899 420.303 94.6699 420.303H87.0499V406.293H90.2299V410.613ZM90.2299 417.513H94.5799C96.0199 417.513 96.9499 416.793 96.9499 415.473C96.9499 414.153 96.0199 413.403 94.5799 413.403H90.2299V417.513ZM112.101 406.293H115.281V420.303H112.101V414.633H104.631V420.303H101.451V406.293H104.631V411.843H112.101V406.293ZM124.68 405.903C128.91 405.903 132.15 409.053 132.15 413.313C132.15 417.543 128.91 420.693 124.68 420.693C120.39 420.693 117.18 417.543 117.18 413.313C117.18 409.053 120.39 405.903 124.68 405.903ZM124.68 417.753C127.2 417.753 128.97 415.833 128.97 413.313C128.97 410.733 127.2 408.843 124.68 408.843C122.19 408.843 120.36 410.733 120.36 413.313C120.36 415.833 122.19 417.753 124.68 417.753ZM137.242 420.303H134.062V406.293H137.242V415.803L144.712 406.293H147.892V420.303H144.712V410.793L137.242 420.303ZM135.232 398.823H137.902C138.022 400.503 139.282 401.703 140.962 401.703C142.642 401.703 143.902 400.503 144.022 398.823H146.692C146.542 402.063 144.082 404.343 140.962 404.343C137.842 404.343 135.382 402.063 135.232 398.823ZM168.742 410.643H165.412C164.692 409.473 163.432 408.843 161.992 408.843C159.502 408.843 157.762 410.733 157.762 413.283C157.762 415.803 159.502 417.753 161.992 417.753C163.432 417.753 164.692 417.123 165.412 415.953H168.742C167.692 418.863 165.112 420.693 161.992 420.693C157.792 420.693 154.582 417.543 154.582 413.283C154.582 409.053 157.792 405.903 161.992 405.903C165.112 405.903 167.692 407.733 168.742 410.643ZM173.678 426.423H170.498V406.293H173.678V407.583C174.668 406.533 176.288 405.903 178.088 405.903C182.648 405.903 185.228 409.443 185.228 413.283C185.228 417.153 182.648 420.693 178.088 420.693C176.288 420.693 174.668 420.063 173.678 419.013V426.423ZM173.558 413.283C173.558 416.283 175.688 417.753 177.878 417.753C180.368 417.753 182.048 415.713 182.048 413.283C182.048 410.883 180.368 408.843 177.878 408.843C175.688 408.843 173.558 410.283 173.558 413.283ZM193.726 417.753C195.136 417.753 196.336 417.273 197.026 416.223H200.476C199.426 418.983 196.816 420.693 193.726 420.693C189.436 420.693 186.256 417.573 186.256 413.283C186.256 409.113 189.286 405.903 193.576 405.903C197.746 405.903 200.686 409.083 200.686 413.163C200.686 413.613 200.716 413.973 200.626 414.423H189.556C189.916 416.433 191.596 417.753 193.726 417.753ZM193.576 408.753C191.536 408.753 189.886 409.983 189.616 411.873H197.326C196.996 409.983 195.616 408.753 193.576 408.753ZM218.392 424.083H215.302V420.303H204.112V424.083H201.052V417.513H202.822C203.932 416.403 204.322 414.273 204.322 412.113V406.293H216.052V417.513H218.392V424.083ZM207.502 409.083V412.083C207.502 413.853 207.322 415.953 206.512 417.513H212.872V409.083H207.502ZM226.6 417.753C228.01 417.753 229.21 417.273 229.9 416.223H233.35C232.3 418.983 229.69 420.693 226.6 420.693C222.31 420.693 219.13 417.573 219.13 413.283C219.13 409.113 222.16 405.903 226.45 405.903C230.62 405.903 233.56 409.083 233.56 413.163C233.56 413.613 233.59 413.973 233.5 414.423H222.43C222.79 416.433 224.47 417.753 226.6 417.753ZM226.45 408.753C224.41 408.753 222.76 409.983 222.49 411.873H230.2C229.87 409.983 228.49 408.753 226.45 408.753ZM253.538 410.643H250.208C249.488 409.473 248.228 408.843 246.788 408.843C244.298 408.843 242.558 410.733 242.558 413.283C242.558 415.803 244.298 417.753 246.788 417.753C248.228 417.753 249.488 417.123 250.208 415.953H253.538C252.488 418.863 249.908 420.693 246.788 420.693C242.588 420.693 239.378 417.543 239.378 413.283C239.378 409.053 242.588 405.903 246.788 405.903C249.908 405.903 252.488 407.733 253.538 410.643ZM263.265 426.423H260.085V406.293H263.265V407.583C264.255 406.533 265.875 405.903 267.675 405.903C272.235 405.903 274.815 409.443 274.815 413.283C274.815 417.153 272.235 420.693 267.675 420.693C265.875 420.693 264.255 420.063 263.265 419.013V426.423ZM263.145 413.283C263.145 416.283 265.275 417.753 267.465 417.753C269.955 417.753 271.635 415.713 271.635 413.283C271.635 410.883 269.955 408.843 267.465 408.843C265.275 408.843 263.145 410.283 263.145 413.283ZM282.503 405.903C286.583 405.903 289.403 407.913 289.403 411.483V420.303H286.223V419.013C285.173 420.123 283.523 420.693 281.513 420.693C278.153 420.693 275.903 419.073 275.903 415.983C275.903 412.533 279.023 411.483 282.293 411.483H286.223C286.223 409.563 284.573 408.843 282.533 408.843C280.883 408.843 279.473 409.353 278.963 410.643H275.573C276.383 407.493 279.293 405.903 282.503 405.903ZM286.223 414.783V414.033H282.263C280.253 414.033 279.083 414.633 279.083 415.983C279.083 417.273 280.193 417.993 282.023 417.993C284.423 417.993 286.223 416.823 286.223 414.783ZM304.386 410.433C304.386 411.483 303.996 412.533 302.826 413.253C303.816 413.883 304.506 414.813 304.506 416.223C304.506 418.743 301.926 420.693 297.966 420.693C293.886 420.693 291.516 418.803 290.886 416.043H294.366C294.876 417.303 296.136 417.933 298.146 417.933C299.946 417.933 301.326 417.153 301.326 416.073C301.326 415.113 300.516 414.573 299.346 414.573H296.016V411.993H299.256C300.426 411.993 301.206 411.453 301.206 410.493C301.206 409.383 299.916 408.633 298.116 408.633C296.256 408.633 295.026 409.203 294.456 410.313H291.006C291.726 407.823 293.946 405.903 298.056 405.903C300.816 405.903 304.386 407.133 304.386 410.433ZM322.38 424.083H319.29V420.303H308.1V424.083H305.04V417.513H306.81C307.92 416.403 308.31 414.273 308.31 412.113V406.293H320.04V417.513H322.38V424.083ZM311.49 409.083V412.083C311.49 413.853 311.31 415.953 310.5 417.513H316.86V409.083H311.49ZM330.589 417.753C331.999 417.753 333.199 417.273 333.889 416.223H337.339C336.289 418.983 333.679 420.693 330.589 420.693C326.299 420.693 323.119 417.573 323.119 413.283C323.119 409.113 326.149 405.903 330.439 405.903C334.609 405.903 337.549 409.083 337.549 413.163C337.549 413.613 337.579 413.973 337.489 414.423H326.419C326.779 416.433 328.459 417.753 330.589 417.753ZM330.439 408.753C328.399 408.753 326.749 409.983 326.479 411.873H334.189C333.859 409.983 332.479 408.753 330.439 408.753ZM340.945 406.293H352.555V420.303H349.375V409.083H344.125V412.173C344.125 415.713 343.615 420.303 338.905 420.303H337.735V417.333H338.545C340.885 417.333 340.945 414.333 340.945 412.113V406.293ZM361.101 405.903C365.181 405.903 368.001 407.913 368.001 411.483V420.303H364.821V419.013C363.771 420.123 362.121 420.693 360.111 420.693C356.751 420.693 354.501 419.073 354.501 415.983C354.501 412.533 357.621 411.483 360.891 411.483H364.821C364.821 409.563 363.171 408.843 361.131 408.843C359.481 408.843 358.071 409.353 357.561 410.643H354.171C354.981 407.493 357.891 405.903 361.101 405.903ZM364.821 414.783V414.033H360.861C358.851 414.033 357.681 414.633 357.681 415.983C357.681 417.273 358.791 417.993 360.621 417.993C363.021 417.993 364.821 416.823 364.821 414.783ZM374.194 406.293L379.204 416.883L384.244 406.293H387.874V420.303H384.694V412.053L380.734 420.303H377.614L373.654 412.053V420.303H370.474V406.293H374.194ZM393.826 420.303H390.646V406.293H393.826V415.803L401.296 406.293H404.476V420.303H401.296V410.793L393.826 420.303ZM54.09 451.083H51V447.303H39.81V451.083H36.75V444.513H38.52C39.63 443.403 40.02 441.273 40.02 439.113V433.293H51.75V444.513H54.09V451.083ZM43.2 436.083V439.083C43.2 440.853 43.02 442.953 42.21 444.513H48.57V436.083H43.2ZM58.0777 433.293H69.6877V447.303H66.5077V436.083H61.2577V439.173C61.2577 442.713 60.7477 447.303 56.0377 447.303H54.8677V444.333H55.6777C58.0177 444.333 58.0777 441.333 58.0777 439.113V433.293ZM81.1137 442.983H78.4737L74.7537 447.303H70.7337L74.7237 442.653C72.5337 441.933 71.5137 440.163 71.5137 438.123C71.5137 435.513 73.2537 433.293 76.9737 433.293H84.2937V447.303H81.1137V442.983ZM81.1137 436.083H77.0637C75.6237 436.083 74.6937 436.803 74.6937 438.123C74.6937 439.443 75.6237 440.193 77.0637 440.193H81.1137V436.083ZM91.8417 433.293H95.0217V439.053L101.232 433.293H105.582L97.9317 440.313L105.582 447.303H101.232L95.0217 441.873V447.303H91.8417V433.293ZM112.15 432.903C116.23 432.903 119.05 434.913 119.05 438.483V447.303H115.87V446.013C114.82 447.123 113.17 447.693 111.16 447.693C107.8 447.693 105.55 446.073 105.55 442.983C105.55 439.533 108.67 438.483 111.94 438.483H115.87C115.87 436.563 114.22 435.843 112.18 435.843C110.53 435.843 109.12 436.353 108.61 437.643H105.22C106.03 434.493 108.94 432.903 112.15 432.903ZM115.87 441.783V441.033H111.91C109.9 441.033 108.73 441.633 108.73 442.983C108.73 444.273 109.84 444.993 111.67 444.993C114.07 444.993 115.87 443.823 115.87 441.783ZM129.143 433.293H132.323V439.023L137.873 433.293H141.953L135.053 440.343L141.953 447.303H137.723L132.323 441.873V447.303H129.143V441.873L123.743 447.303H119.543L126.443 440.343L119.543 433.293H123.593L129.143 439.023V433.293ZM158.531 451.083H155.441V447.303H144.251V451.083H141.191V444.513H142.961C144.071 443.403 144.461 441.273 144.461 439.113V433.293H156.191V444.513H158.531V451.083ZM147.641 436.083V439.083C147.641 440.853 147.461 442.953 146.651 444.513H153.011V436.083H147.641ZM166.77 432.903C171 432.903 174.24 436.053 174.24 440.313C174.24 444.543 171 447.693 166.77 447.693C162.48 447.693 159.27 444.543 159.27 440.313C159.27 436.053 162.48 432.903 166.77 432.903ZM166.77 444.753C169.29 444.753 171.06 442.833 171.06 440.313C171.06 437.733 169.29 435.843 166.77 435.843C164.28 435.843 162.45 437.733 162.45 440.313C162.45 442.833 164.28 444.753 166.77 444.753ZM179.332 447.303H176.152V433.293H179.332V442.803L186.802 433.293H189.982V447.303H186.802V437.793L179.332 447.303ZM177.322 425.823H179.992C180.112 427.503 181.372 428.703 183.052 428.703C184.732 428.703 185.992 427.503 186.112 425.823H188.782C188.632 429.063 186.172 431.343 183.052 431.343C179.932 431.343 177.472 429.063 177.322 425.823ZM200.722 447.303H197.542V433.293H200.722V442.803L208.192 433.293H211.372V447.303H208.192V437.793L200.722 447.303ZM226.651 437.433C226.651 438.483 226.261 439.533 225.091 440.253C226.081 440.883 226.771 441.813 226.771 443.223C226.771 445.743 224.191 447.693 220.231 447.693C216.151 447.693 213.781 445.803 213.151 443.043H216.631C217.141 444.303 218.401 444.933 220.411 444.933C222.211 444.933 223.591 444.153 223.591 443.073C223.591 442.113 222.781 441.573 221.611 441.573H218.281V438.993H221.521C222.691 438.993 223.471 438.453 223.471 437.493C223.471 436.383 222.181 435.633 220.381 435.633C218.521 435.633 217.291 436.203 216.721 437.313H213.271C213.991 434.823 216.211 432.903 220.321 432.903C223.081 432.903 226.651 434.133 226.651 437.433ZM246.917 437.643H243.587C242.867 436.473 241.607 435.843 240.167 435.843C237.677 435.843 235.937 437.733 235.937 440.283C235.937 442.803 237.677 444.753 240.167 444.753C241.607 444.753 242.867 444.123 243.587 442.953H246.917C245.867 445.863 243.287 447.693 240.167 447.693C235.967 447.693 232.757 444.543 232.757 440.283C232.757 436.053 235.967 432.903 240.167 432.903C243.287 432.903 245.867 434.733 246.917 437.643ZM256.593 427.233H259.773V433.293H261.063C265.413 433.293 268.533 436.263 268.533 440.283C268.533 444.543 265.683 447.303 261.093 447.303H259.773V453.423H256.593V447.303H255.273C250.623 447.303 247.803 444.543 247.803 440.283C247.803 436.263 250.953 433.293 255.273 433.293H256.593V427.233ZM261.063 436.083H259.773V444.513H261.063C263.943 444.513 265.353 442.713 265.353 440.283C265.353 437.793 263.793 436.083 261.063 436.083ZM256.593 436.083H255.303C252.573 436.083 250.983 437.793 250.983 440.283C250.983 442.713 252.393 444.513 255.273 444.513H256.593V436.083ZM277.057 444.753C278.467 444.753 279.667 444.273 280.357 443.223H283.807C282.757 445.983 280.147 447.693 277.057 447.693C272.767 447.693 269.587 444.573 269.587 440.283C269.587 436.113 272.617 432.903 276.907 432.903C281.077 432.903 284.017 436.083 284.017 440.163C284.017 440.613 284.047 440.973 283.957 441.423H272.887C273.247 443.433 274.927 444.753 277.057 444.753ZM276.907 435.753C274.867 435.753 273.217 436.983 272.947 438.873H280.657C280.327 436.983 278.947 435.753 276.907 435.753ZM289.092 453.423H285.912V433.293H289.092V434.583C290.082 433.533 291.702 432.903 293.502 432.903C298.062 432.903 300.642 436.443 300.642 440.283C300.642 444.153 298.062 447.693 293.502 447.693C291.702 447.693 290.082 447.063 289.092 446.013V453.423ZM288.972 440.283C288.972 443.283 291.102 444.753 293.292 444.753C295.782 444.753 297.462 442.713 297.462 440.283C297.462 437.883 295.782 435.843 293.292 435.843C291.102 435.843 288.972 437.283 288.972 440.283ZM307.332 433.293H310.512V439.053L316.722 433.293H321.072L313.422 440.313L321.072 447.303H316.722L310.512 441.873V447.303H307.332V433.293ZM325.03 453.423H321.85V433.293H325.03V434.583C326.02 433.533 327.64 432.903 329.44 432.903C334 432.903 336.58 436.443 336.58 440.283C336.58 444.153 334 447.693 329.44 447.693C327.64 447.693 326.02 447.063 325.03 446.013V453.423ZM324.91 440.283C324.91 443.283 327.04 444.753 329.23 444.753C331.72 444.753 333.4 442.713 333.4 440.283C333.4 437.883 331.72 435.843 329.23 435.843C327.04 435.843 324.91 437.283 324.91 440.283ZM345.078 444.753C346.488 444.753 347.688 444.273 348.378 443.223H351.828C350.778 445.983 348.168 447.693 345.078 447.693C340.788 447.693 337.608 444.573 337.608 440.283C337.608 436.113 340.638 432.903 344.928 432.903C349.098 432.903 352.038 436.083 352.038 440.163C352.038 440.613 352.068 440.973 351.978 441.423H340.908C341.268 443.433 342.948 444.753 345.078 444.753ZM344.928 435.753C342.888 435.753 341.238 436.983 340.968 438.873H348.678C348.348 436.983 346.968 435.753 344.928 435.753ZM359.724 432.903C363.804 432.903 366.624 434.913 366.624 438.483V447.303H363.444V446.013C362.394 447.123 360.744 447.693 358.734 447.693C355.374 447.693 353.124 446.073 353.124 442.983C353.124 439.533 356.244 438.483 359.514 438.483H363.444C363.444 436.563 361.794 435.843 359.754 435.843C358.104 435.843 356.694 436.353 356.184 437.643H352.794C353.604 434.493 356.514 432.903 359.724 432.903ZM363.444 441.783V441.033H359.484C357.474 441.033 356.304 441.633 356.304 442.983C356.304 444.273 357.414 444.993 359.244 444.993C361.644 444.993 363.444 443.823 363.444 441.783ZM367.211 436.083V433.293H381.041V436.083H375.701V447.303H372.521V436.083H367.211ZM388.487 432.903C392.717 432.903 395.957 436.053 395.957 440.313C395.957 444.543 392.717 447.693 388.487 447.693C384.197 447.693 380.987 444.543 380.987 440.313C380.987 436.053 384.197 432.903 388.487 432.903ZM388.487 444.753C391.007 444.753 392.777 442.833 392.777 440.313C392.777 437.733 391.007 435.843 388.487 435.843C385.997 435.843 384.167 437.733 384.167 440.313C384.167 442.833 385.997 444.753 388.487 444.753ZM401.05 453.423H397.87V433.293H401.05V434.583C402.04 433.533 403.66 432.903 405.46 432.903C410.02 432.903 412.6 436.443 412.6 440.283C412.6 444.153 410.02 447.693 405.46 447.693C403.66 447.693 402.04 447.063 401.05 446.013V453.423ZM400.93 440.283C400.93 443.283 403.06 444.753 405.25 444.753C407.74 444.753 409.42 442.713 409.42 440.283C409.42 437.883 407.74 435.843 405.25 435.843C403.06 435.843 400.93 437.283 400.93 440.283ZM421.128 432.903C425.358 432.903 428.598 436.053 428.598 440.313C428.598 444.543 425.358 447.693 421.128 447.693C416.838 447.693 413.628 444.543 413.628 440.313C413.628 436.053 416.838 432.903 421.128 432.903ZM421.128 444.753C423.648 444.753 425.418 442.833 425.418 440.313C425.418 437.733 423.648 435.843 421.128 435.843C418.638 435.843 416.808 437.733 416.808 440.313C416.808 442.833 418.638 444.753 421.128 444.753ZM442.12 440.253C443.29 441.003 443.71 442.143 443.71 443.313C443.71 445.473 442.21 447.303 439.09 447.303H430.51V433.293H438.94C442.06 433.293 443.56 435.093 443.56 437.283C443.56 438.393 443.23 439.443 442.12 440.253ZM433.69 444.633H438.67C439.84 444.633 440.53 444.093 440.53 443.103C440.53 442.113 439.84 441.573 438.67 441.573H433.69V444.633ZM433.69 438.993H438.52C439.69 438.993 440.38 438.453 440.38 437.463C440.38 436.503 439.69 435.963 438.52 435.963H433.69V438.993Z" fill="black"/>
</g>
</svg>
